<svg width="18" height="18" viewBox="0 0 18 18" fill="none" xmlns="http://www.w3.org/2000/svg">
<path d="M14.7239 4.01123H6.19712C4.988 4.01123 4.00781 4.95874 4.00781 6.12756V14.3701C4.00781 15.5389 4.988 16.4865 6.19712 16.4865H14.7239C15.933 16.4865 16.9132 15.5389 16.9132 14.3701V6.12756C16.9132 4.95874 15.933 4.01123 14.7239 4.01123Z" stroke="white" stroke-width="2" stroke-linejoin="round"/>
<path d="M13.8862 3.97029L13.9054 3.0792C13.9038 2.52825 13.6766 2.0003 13.2736 1.61072C12.8706 1.22113 12.3245 1.00157 11.7545 1H3.45817C2.80682 1.00186 2.18269 1.25281 1.72211 1.69804C1.26153 2.14327 1.00193 2.74659 1 3.37623V11.396C1.00162 11.947 1.22875 12.4749 1.63178 12.8645C2.0348 13.2541 2.58095 13.4737 3.1509 13.4752H4.07272" stroke="white" stroke-width="2" stroke-linecap="round" stroke-linejoin="round"/>
</svg>
