<svg width="34" height="34" viewBox="0 0 34 34" fill="none" xmlns="http://www.w3.org/2000/svg">
<g clip-path="url(#clip0_112_36)">
<path d="M16.834 33.5954L21.5249 7.10052C25.9963 7.10052 27.4066 7.59292 27.6102 9.60275C27.6102 9.60275 30.6097 8.47958 32.1226 6.19845C26.2191 3.45122 20.2874 3.32732 20.2874 3.32732L16.8262 7.56105L16.834 7.56052L13.3727 3.32666C13.3727 3.32666 7.44094 3.45069 1.53823 6.19792C3.04974 8.47905 6.05042 9.60222 6.05042 9.60222C6.25524 7.59226 7.66388 7.09986 12.1052 7.09667L16.834 33.5954" fill="#FD222A"/>
<path d="M16.8315 2.10465C21.6037 2.068 27.0659 2.84604 32.6576 5.29355C33.405 3.94265 33.5971 3.34561 33.5971 3.34561C27.4846 0.916945 21.7602 0.08579 16.8309 0.0649414C11.9017 0.08579 6.17768 0.917078 0.0659103 3.34561C0.0659103 3.34561 0.338567 4.08102 1.00474 5.29355C6.59539 2.84604 12.0586 2.068 16.8309 2.10465H16.8315Z" fill="#FD222A"/>
</g>
<defs>
<clipPath id="clip0_112_36">
<rect width="33.6634" height="33.6634" fill="white"/>
</clipPath>
</defs>
</svg>
