<svg width="204" height="34" viewBox="0 0 204 34" fill="none" xmlns="http://www.w3.org/2000/svg">
<g clip-path="url(#clip0_113_256)">
<path d="M16.834 33.5954L21.5249 7.10052C25.9963 7.10052 27.4066 7.59292 27.6102 9.60275C27.6102 9.60275 30.6097 8.47958 32.1226 6.19845C26.2191 3.45122 20.2874 3.32732 20.2874 3.32732L16.8262 7.56105L16.834 7.56052L13.3727 3.32666C13.3727 3.32666 7.44094 3.45069 1.53823 6.19792C3.04974 8.47905 6.05042 9.60222 6.05042 9.60222C6.25524 7.59226 7.66388 7.09986 12.1052 7.09667L16.834 33.5954" fill="#FD222A"/>
<path d="M16.8315 2.10465C21.6037 2.068 27.0659 2.84604 32.6576 5.29355C33.405 3.94265 33.5971 3.34561 33.5971 3.34561C27.4846 0.916945 21.7602 0.08579 16.8309 0.0649414C11.9017 0.08579 6.17768 0.917078 0.0659103 3.34561C0.0659103 3.34561 0.338567 4.08102 1.00474 5.29355C6.59539 2.84604 12.0586 2.068 16.8309 2.10465H16.8315Z" fill="#FD222A"/>
</g>
<g clip-path="url(#clip1_113_256)">
<path d="M155.757 6.7576L151.85 6.76779V26.9149H169.769C171.729 26.0791 172.778 24.6344 173.184 22.9476H155.747L155.757 6.7576ZM184.997 10.7834H199.944C202.021 10.3707 203.567 8.52846 204.001 6.7474H180.938C181.369 8.52846 182.938 10.3707 184.997 10.7834ZM136.591 10.7274C138.668 10.121 140.417 8.52846 140.843 6.76269H118.911V18.667H136.862V22.8457L122.782 22.8585C120.574 23.4751 118.708 24.9631 117.772 26.9302L118.911 26.9098H140.721V14.7099H122.782V10.7274H136.591V10.7274ZM181.541 26.9098H185.428V18.7995H199.579V26.9098H203.463V14.7456L181.541 14.7252V26.9098ZM88.7023 10.7707H103.647C105.726 10.3554 107.27 8.51317 107.704 6.73211H84.6429C85.0739 8.51317 86.6409 10.3554 88.7023 10.7707V10.7707ZM49.8223 6.77798C50.2711 8.5412 51.7899 10.3375 53.8716 10.7911H60.1623L60.4817 10.9185V26.869H64.4118V10.9185L64.7668 10.7911H71.0651C73.167 10.2458 74.6529 8.5412 75.0966 6.77798V6.73976H49.8223V6.77798V6.77798ZM88.7023 26.9123H103.647C105.726 26.4945 107.27 24.6574 107.704 22.8737H84.6429C85.0739 24.6574 86.6409 26.4945 88.7023 26.9123V26.9123ZM88.7023 18.7332H103.647C105.726 18.3205 107.27 16.4782 107.704 14.6972H84.6429C85.0739 16.4782 86.6409 18.3205 88.7023 18.7332Z" fill="white"/>
</g>
<defs>
<clipPath id="clip0_113_256">
<rect width="33.6634" height="33.6634" fill="white"/>
</clipPath>
<clipPath id="clip1_113_256">
<rect width="154.179" height="20.1981" fill="white" transform="translate(49.8214 6.73096)"/>
</clipPath>
</defs>
</svg>
