<svg width="139" height="32" viewBox="0 0 139 32" fill="none" xmlns="http://www.w3.org/2000/svg">
<path fill-rule="evenodd" clip-rule="evenodd" d="M12.5026 31.5208C21.3408 33.6583 30.2914 28.4419 32.4946 19.8705C34.6979 11.2986 29.3202 2.61576 20.4825 0.478791C11.6469 -1.65818 2.69629 3.55874 0.494084 12.1311C-1.71018 20.702 3.66801 29.3838 12.5026 31.5208ZM20.14 9.6851C22.4252 10.4486 24.0964 11.5931 23.768 13.722C23.5304 15.2805 22.6396 16.035 21.4571 16.2995C23.0809 17.1195 23.9072 18.377 23.1201 20.5569C22.1432 23.2644 19.8224 23.4929 16.7361 22.9264L15.9871 25.8378L14.1772 25.4004L14.9164 22.5279C14.4473 22.4149 13.9679 22.2949 13.4741 22.1649L12.7323 25.0509L10.9244 24.6134L11.6734 21.6964C11.5045 21.6544 11.3345 21.6114 11.1633 21.5681C10.9061 21.5031 10.6462 21.4373 10.3831 21.3734L8.02783 20.8039L8.92635 18.7945C8.92635 18.7945 10.2599 19.1384 10.2419 19.1129C10.7543 19.2359 10.9816 18.912 11.0713 18.696L12.2549 14.0935C12.2993 14.1039 12.3427 14.1144 12.3846 14.1246C12.4056 14.1297 12.4261 14.1347 12.4462 14.1395C12.374 14.1115 12.3085 14.0935 12.258 14.081L13.1024 10.7956C13.1246 10.4226 12.9921 9.95209 12.259 9.77459C12.2874 9.75609 10.9445 9.4576 10.9445 9.4576L11.426 7.58263L13.922 8.18712L13.92 8.19613C14.2952 8.28662 14.6819 8.37261 15.0757 8.45961L15.8175 5.57666L17.6264 6.01415L16.8995 8.84062C17.3851 8.94812 17.8738 9.05661 18.3496 9.17161L19.0713 6.36365L20.8812 6.80114L20.14 9.6851ZM14.4151 20.1413C15.8919 20.5196 19.1196 21.3465 19.6327 19.3464C20.1585 17.3015 17.0282 16.6202 15.5008 16.2878C15.3301 16.2506 15.1794 16.2178 15.0561 16.188L14.0622 20.0524C14.1635 20.0768 14.2822 20.1072 14.4151 20.1413ZM15.8077 14.4944C17.039 14.8131 19.7247 15.5083 20.1925 13.6905C20.6703 11.8312 18.06 11.2707 16.7851 10.997C16.6417 10.9662 16.5152 10.9391 16.4119 10.9141L15.5108 14.419C15.5959 14.4396 15.6958 14.4655 15.8077 14.4944Z" fill="white"/>
<path d="M52.8025 11.0338C53.8387 11.0338 54.7338 11.2165 55.4861 11.5753C56.2419 11.9376 56.8655 12.4257 57.3658 13.0396C57.8593 13.6566 58.2267 14.3777 58.4638 15.2041C58.6994 16.0329 58.8176 16.9239 58.8176 17.8776C58.8176 19.3427 58.5449 20.7268 57.9943 22.0315C57.4437 23.3382 56.6966 24.4715 55.7464 25.4383C54.7969 26.4038 53.6758 27.1651 52.3829 27.7274C51.0921 28.2902 49.6886 28.5716 48.1818 28.5716C47.9869 28.5716 47.6443 28.5661 47.1604 28.5562C46.6765 28.5464 46.1203 28.4973 45.4975 28.4144C44.8706 28.3283 44.2078 28.201 43.5079 28.0304C42.8084 27.863 42.144 27.6284 41.5183 27.3305L47.1129 4.19307L52.1238 3.42871L50.1206 11.6394C50.5494 11.4492 50.9815 11.3018 51.4127 11.1945C51.8443 11.0888 52.3074 11.0338 52.8025 11.0338ZM48.5994 24.659C49.354 24.659 50.0651 24.4763 50.7331 24.1175C51.4031 23.7583 51.9812 23.2733 52.4656 22.6693C52.9499 22.0625 53.3332 21.3791 53.6127 20.6156C53.8922 19.852 54.0335 19.0554 54.0335 18.2266C54.0335 17.2084 53.8606 16.4142 53.516 15.84C53.1715 15.2682 52.5338 14.9805 51.6079 14.9805C51.3045 14.9805 50.9136 15.0375 50.4289 15.1393C49.9426 15.2474 49.5073 15.4718 49.1173 15.8093L46.9843 24.5289C47.1129 24.5513 47.2267 24.5725 47.3237 24.5926C47.4187 24.6142 47.5238 24.6295 47.6284 24.6401C47.739 24.6523 47.8655 24.6586 48.0185 24.6586C48.1714 24.6586 48.3626 24.659 48.5994 24.659Z" fill="white"/>
<path d="M64.103 28.5716H58.8176L63.2811 11.3075H68.6026L64.103 28.5716ZM66.6749 9.20407C65.9373 9.20407 65.2684 9.00223 64.6749 8.59776C64.0765 8.19571 63.7802 7.57684 63.7802 6.74275C63.7802 6.28397 63.8817 5.85355 64.0827 5.44745C64.2869 5.04216 64.5536 4.69321 64.8878 4.39654C65.2216 4.1023 65.6083 3.86723 66.0475 3.69012C66.4893 3.51584 66.9593 3.42871 67.4602 3.42871C68.1974 3.42871 68.8628 3.63055 69.4585 4.03502C70.052 4.44153 70.3505 5.0604 70.3505 5.89003C70.3505 6.35043 70.2495 6.78247 70.0467 7.18776C69.8452 7.59304 69.5784 7.94199 69.2442 8.23866C68.9131 8.53331 68.5228 8.76757 68.0846 8.94306C67.6423 9.12017 67.174 9.20407 66.6749 9.20407Z" fill="white"/>
<path d="M72.8002 7.60949L77.7761 6.85693L76.5542 11.7151H81.8832L80.9209 15.5371H75.624L74.2131 21.3022C74.0831 21.7827 74.0094 22.2315 73.9888 22.6486C73.9654 23.0677 74.0197 23.4275 74.1481 23.7305C74.2757 24.0342 74.5052 24.2683 74.8381 24.4339C75.1694 24.6022 75.6438 24.6869 76.2661 24.6869C76.7785 24.6869 77.2779 24.6393 77.7606 24.5449C78.2405 24.4521 78.7268 24.3229 79.2191 24.1538L79.5734 27.7274C78.9313 27.9572 78.2362 28.1549 77.4871 28.3213C76.7369 28.49 75.8487 28.5712 74.8223 28.5712C73.3463 28.5712 72.2022 28.3573 71.3869 27.9313C70.5729 27.5022 69.9974 26.916 69.653 26.1739C69.3134 25.4345 69.1616 24.5821 69.204 23.6218C69.248 22.6591 69.3966 21.6473 69.653 20.5817L72.8002 7.60949Z" fill="white"/>
<path d="M81.8833 21.6412C81.8833 20.2395 82.1223 18.9176 82.6 17.6802C83.0768 16.4416 83.7637 15.3585 84.655 14.4289C85.543 13.504 86.6251 12.7712 87.8986 12.2333C89.1662 11.6984 90.5854 11.4287 92.1495 11.4287C93.1285 11.4287 94.0029 11.5166 94.7723 11.6927C95.5449 11.8704 96.2438 12.1 96.876 12.388L95.2125 15.9793C94.7779 15.8119 94.3268 15.6645 93.8605 15.5308C93.3937 15.3944 92.8239 15.3287 92.1499 15.3287C90.5399 15.3287 89.2672 15.8555 88.3199 16.9057C87.3763 17.9568 86.9011 19.3715 86.9011 21.1461C86.9011 22.1979 87.1401 23.0483 87.6198 23.6989C88.097 24.3496 88.9787 24.6732 90.2587 24.6732C90.8904 24.6732 91.5 24.6105 92.0839 24.4882C92.6722 24.3645 93.1917 24.2086 93.6492 24.0244L94.0094 27.7059C93.3993 27.9305 92.7265 28.1334 91.9886 28.311C91.249 28.4825 90.3685 28.5716 89.3477 28.5716C88 28.5716 86.8593 28.3844 85.9261 28.0157C84.9926 27.6413 84.2212 27.1442 83.6136 26.5146C83.0027 25.8835 82.5641 25.1465 82.2929 24.3007C82.0217 23.4556 81.8833 22.5677 81.8833 21.6412Z" fill="white"/>
<path d="M102.861 28.5716C101.648 28.5716 100.595 28.405 99.7012 28.0753C98.8101 27.7456 98.0721 27.2829 97.4883 26.6831C96.9037 26.0864 96.4662 25.3792 96.1665 24.5643C95.8668 23.7497 95.7227 22.8477 95.7227 21.8594C95.7227 20.6196 95.9435 19.3803 96.3899 18.1443C96.8342 16.9057 97.4934 15.7928 98.3658 14.8037C99.2315 13.8131 100.299 13.0031 101.557 12.3716C102.813 11.7443 104.258 11.4287 105.88 11.4287C107.071 11.4287 108.119 11.5957 109.025 11.9254C109.927 12.2543 110.67 12.7208 111.257 13.3176C111.837 13.9174 112.279 14.6215 112.576 15.4375C112.874 16.2505 113.022 17.1548 113.022 18.144C113.022 19.3799 112.804 20.6192 112.372 21.859C111.939 23.0926 111.297 24.2082 110.449 25.1996C109.603 26.1887 108.544 26.9983 107.273 27.6272C106.004 28.256 104.532 28.5716 102.861 28.5716ZM105.401 15.329C104.648 15.329 103.982 15.5262 103.411 15.9155C102.839 16.3094 102.358 16.8045 101.971 17.4016C101.579 18.0015 101.289 18.6555 101.093 19.3665C100.898 20.079 100.803 20.7526 100.803 21.3925C100.803 22.4252 100.987 23.2294 101.351 23.8082C101.719 24.384 102.381 24.6735 103.343 24.6735C104.099 24.6735 104.761 24.4779 105.335 24.0844C105.904 23.6936 106.385 23.1981 106.775 22.5998C107.165 22.003 107.457 21.3471 107.654 20.6349C107.846 19.9247 107.944 19.2473 107.944 18.6085C107.944 17.5785 107.76 16.7724 107.393 16.1944C107.027 15.6186 106.362 15.329 105.401 15.329Z" fill="white"/>
<path d="M117.78 28.5716H113.022L117.037 11.3075H121.826L117.78 28.5716ZM120.09 9.20407C119.427 9.20407 118.826 9.00223 118.293 8.59776C117.757 8.19571 117.488 7.57684 117.488 6.74275C117.488 6.28397 117.581 5.85355 117.762 5.44745C117.943 5.04216 118.185 4.69321 118.486 4.39654C118.784 4.1023 119.135 3.86723 119.53 3.69012C119.925 3.51584 120.347 3.42871 120.796 3.42871C121.461 3.42871 122.062 3.63055 122.596 4.03502C123.131 4.44153 123.402 5.0604 123.402 5.89003C123.402 6.35043 123.306 6.78247 123.126 7.18776C122.946 7.59304 122.705 7.94199 122.405 8.23866C122.104 8.53331 121.757 8.76757 121.362 8.94306C120.964 9.12017 120.542 9.20407 120.09 9.20407Z" fill="white"/>
<path d="M125.111 12.5771C125.484 12.4724 125.9 12.3465 126.352 12.2096C126.807 12.0727 127.314 11.9453 127.881 11.8304C128.442 11.712 129.075 11.616 129.77 11.5416C130.466 11.4657 131.259 11.4287 132.14 11.4287C134.73 11.4287 136.515 12.153 137.5 13.5972C138.485 15.0414 138.655 17.0179 138.016 19.5231L135.758 28.5716H130.816L133.005 19.7135C133.138 19.1604 133.243 18.6258 133.32 18.1033C133.399 17.5856 133.394 17.1292 133.303 16.7343C133.215 16.344 133.01 16.0245 132.691 15.7771C132.367 15.5336 131.877 15.4112 131.213 15.4112C130.573 15.4112 129.922 15.4773 129.257 15.6048L126.039 28.5712H121.095L125.111 12.5771Z" fill="white"/>
</svg>
