<svg width="157" height="33" viewBox="0 0 157 33" fill="none" xmlns="http://www.w3.org/2000/svg">
<g clip-path="url(#clip0_119_834)">
<path d="M10.6039 0L10.3723 0.751799V22.5673L10.6039 22.7881L21.2073 16.8023L10.6039 0Z" fill="white"/>
<path d="M10.609 0L0.00561523 16.8023L10.609 22.7881V12.1996V0Z" fill="white"/>
<path d="M10.6044 24.7069L10.4739 24.8588V32.63L10.6044 32.994L21.2141 18.7241L10.6044 24.7069Z" fill="white"/>
<path d="M10.6056 32.9935V24.7064L0.00219727 18.7236L10.6056 32.9935Z" fill="white"/>
<path d="M10.6067 22.7881L21.2099 16.8025L10.6067 12.1997V22.7881Z" fill="white"/>
<path d="M0.00219727 16.8025L10.6054 22.7882V12.1997L0.00219727 16.8025Z" fill="white"/>
</g>
<path d="M50.3787 25.4527H37.1279V7.21826H50.3787V10.6355H41.1144V14.4902H50.1822V17.9074H41.1144V22.0355H50.3787V25.4527Z" fill="white"/>
<path d="M57.9588 25.7808C56.7048 25.7808 55.7503 25.4709 55.0953 24.8513C54.4402 24.2316 54.1127 23.3386 54.1127 22.1721V15.283H51.8668V12.2485H54.1127V8.63984H57.7061V12.2485H60.4573V15.283H57.7061V21.2427C57.7061 21.6618 57.8184 22.0081 58.043 22.2815C58.2676 22.5549 58.5671 22.6916 58.9414 22.6916C59.5028 22.6916 59.9146 22.564 60.1766 22.3088L60.9346 24.9333C60.2796 25.4983 59.2876 25.7808 57.9588 25.7808Z" fill="white"/>
<path d="M75.6421 25.4527H72.0768V17.4153C72.0768 16.5405 71.8615 15.9209 71.4311 15.5564C71.0006 15.1918 70.3736 15.0096 69.5501 15.0096C68.2962 15.0096 67.2668 15.529 66.462 16.5679V25.4527H62.8967V7.21826H66.462V13.9707C66.9486 13.4058 67.6037 12.9228 68.4272 12.5218C69.2694 12.1209 70.2052 11.9204 71.2346 11.9204C72.6944 11.9204 73.7893 12.2849 74.5192 13.0139C75.2678 13.7429 75.6421 14.7635 75.6421 16.0758V25.4527Z" fill="white"/>
<path d="M85.5543 25.7808C83.4581 25.7808 81.7269 25.1429 80.3607 23.8671C78.9944 22.5913 78.3113 20.9146 78.3113 18.8369C78.3113 16.8868 78.9664 15.2465 80.2765 13.9161C81.6053 12.5856 83.2897 11.9204 85.3297 11.9204C87.351 11.9204 88.9887 12.5947 90.2426 13.9434C91.4966 15.2739 92.1235 17.0235 92.1235 19.1923V19.9578H82.0451C82.1574 20.8326 82.5598 21.5616 83.2523 22.1448C83.9448 22.728 84.8431 23.0196 85.9473 23.0196C86.5463 23.0196 87.1919 22.9012 87.8844 22.6642C88.5956 22.4273 89.1571 22.1084 89.5688 21.7074L91.141 23.9491C89.7747 25.1702 87.9125 25.7808 85.5543 25.7808ZM88.6705 17.6067C88.6143 16.8595 88.3055 16.1851 87.7441 15.5837C87.2013 14.9823 86.3965 14.6815 85.3297 14.6815C84.3191 14.6815 83.533 14.9823 82.9715 15.5837C82.4101 16.1669 82.0825 16.8412 81.989 17.6067H88.6705Z" fill="white"/>
<path d="M98.2642 25.4527H94.6989V12.2485H98.2642V14.0528C98.7695 13.4331 99.4152 12.9228 100.201 12.5218C100.987 12.1209 101.783 11.9204 102.588 11.9204V15.3103C102.344 15.2556 102.017 15.2283 101.605 15.2283C101.006 15.2283 100.37 15.3741 99.696 15.6657C99.0222 15.9573 98.545 16.3127 98.2642 16.7319V25.4527Z" fill="white"/>
<path d="M111.188 25.7808C109.092 25.7808 107.361 25.1429 105.994 23.8671C104.628 22.5913 103.945 20.9146 103.945 18.8369C103.945 16.8868 104.6 15.2465 105.91 13.9161C107.239 12.5856 108.923 11.9204 110.963 11.9204C112.985 11.9204 114.622 12.5947 115.876 13.9434C117.13 15.2739 117.757 17.0235 117.757 19.1923V19.9578H107.679C107.791 20.8326 108.193 21.5616 108.886 22.1448C109.578 22.728 110.477 23.0196 111.581 23.0196C112.18 23.0196 112.826 22.9012 113.518 22.6642C114.229 22.4273 114.791 22.1084 115.202 21.7074L116.775 23.9491C115.408 25.1702 113.546 25.7808 111.188 25.7808ZM114.304 17.6067C114.248 16.8595 113.939 16.1851 113.378 15.5837C112.835 14.9823 112.03 14.6815 110.963 14.6815C109.953 14.6815 109.167 14.9823 108.605 15.5837C108.044 16.1669 107.716 16.8412 107.623 17.6067H114.304Z" fill="white"/>
<path d="M133.05 25.4527H129.485V23.7851C128.268 25.1155 126.677 25.7808 124.712 25.7808C123.252 25.7808 122.157 25.4163 121.427 24.6872C120.697 23.9582 120.333 22.9376 120.333 21.6254V12.2485H123.898V20.2585C123.898 21.8805 124.731 22.6916 126.396 22.6916C127.65 22.6916 128.68 22.1904 129.485 21.188V12.2485H133.05V25.4527Z" fill="white"/>
<path d="M157 25.4527H153.406V17.1146C153.406 15.7113 152.732 15.0096 151.385 15.0096C150.805 15.0096 150.262 15.1645 149.757 15.4743C149.27 15.7842 148.877 16.1396 148.577 16.5405V25.4527H144.984V17.1146C144.984 15.7113 144.31 15.0096 142.963 15.0096C142.401 15.0096 141.868 15.1645 141.363 15.4743C140.857 15.7842 140.455 16.1487 140.155 16.5679V25.4527H136.59V12.2485H140.155V13.9707C140.492 13.4969 141.082 13.0413 141.924 12.6038C142.766 12.1482 143.655 11.9204 144.591 11.9204C146.556 11.9204 147.81 12.7223 148.353 14.3261C148.783 13.67 149.42 13.105 150.262 12.6312C151.123 12.1573 152.04 11.9204 153.013 11.9204C154.286 11.9204 155.268 12.2576 155.961 12.9319C156.653 13.588 157 14.5813 157 15.9117V25.4527Z" fill="white"/>
<defs>
<clipPath id="clip0_119_834">
<rect width="21.2162" height="33" fill="white"/>
</clipPath>
</defs>
</svg>
