<svg width="158" height="32" viewBox="0 0 158 32" fill="none" xmlns="http://www.w3.org/2000/svg">
<path d="M32.4946 19.8705C30.2914 28.4419 21.3408 33.6583 12.5026 31.5208C3.66801 29.3838 -1.71018 20.702 0.494084 12.1311C2.69629 3.55874 11.6469 -1.65818 20.4825 0.478791C29.3202 2.61576 34.6979 11.2986 32.4946 19.8705Z" fill="#FF6A2A"/>
<path d="M23.7679 13.722C24.0963 11.5931 22.425 10.4486 20.1398 9.6851L20.8811 6.80114L19.0712 6.36365L18.3495 9.1716C17.8737 9.05661 17.385 8.94811 16.8994 8.84062L17.6263 6.01415L15.8174 5.57666L15.0756 8.45961C14.6818 8.37261 14.2951 8.28662 13.9198 8.19613L13.9219 8.18712L11.4259 7.58263L10.9444 9.4576C10.9444 9.4576 12.2873 9.75609 12.2589 9.77459C12.992 9.95209 13.1244 10.4226 13.1023 10.7956L12.2579 14.081C12.3084 14.0935 12.3739 14.1115 12.446 14.1395C12.3857 14.125 12.3213 14.109 12.2548 14.0935L11.0712 18.696C10.9815 18.912 10.7542 19.2359 10.2418 19.1129C10.2598 19.1384 8.92623 18.7945 8.92623 18.7945L8.02771 20.8039L10.383 21.3734C10.8212 21.4799 11.2506 21.5914 11.6733 21.6964L10.9243 24.6134L12.7321 25.0509L13.4739 22.1649C13.9678 22.2949 14.4472 22.4149 14.9163 22.5279L14.1771 25.4004L15.987 25.8378L16.736 22.9264C19.8223 23.4929 22.1431 23.2644 23.1199 20.5569C23.9071 18.377 23.0808 17.1195 21.4569 16.2995C22.6395 16.035 23.5303 15.2805 23.7679 13.722ZM19.6326 19.3464C19.0733 21.5264 15.289 20.3479 14.0621 20.0524L15.056 16.188C16.2829 16.485 20.2172 17.073 19.6326 19.3464ZM20.1924 13.6905C19.6821 15.6735 16.5324 14.666 15.5107 14.419L16.4118 10.9141C17.4335 11.1611 20.7239 11.6221 20.1924 13.6905Z" fill="white"/>
<path d="M52.8025 11.0338C53.8386 11.0338 54.7338 11.2165 55.486 11.5753C56.2418 11.9376 56.8655 12.4257 57.3658 13.0396C57.8593 13.6566 58.2266 14.3777 58.4638 15.2041C58.6993 16.0329 58.8175 16.9239 58.8175 17.8776C58.8175 19.3427 58.5448 20.7268 57.9942 22.0315C57.4436 23.3382 56.6966 24.4715 55.7463 25.4383C54.7968 26.4038 53.6757 27.1651 52.3828 27.7274C51.092 28.2902 49.6886 28.5716 48.1817 28.5716C47.9869 28.5716 47.6443 28.5661 47.1604 28.5562C46.6764 28.5464 46.1203 28.4973 45.4974 28.4144C44.8705 28.3283 44.2077 28.201 43.5078 28.0304C42.8083 27.863 42.1439 27.6284 41.5182 27.3305L47.1129 4.19307L52.1237 3.42871L50.1206 11.6394C50.5494 11.4492 50.9814 11.3018 51.4126 11.1945C51.8442 11.0888 52.3074 11.0338 52.8025 11.0338ZM48.5993 24.659C49.354 24.659 50.0651 24.4763 50.733 24.1175C51.403 23.7583 51.9812 23.2733 52.4655 22.6693C52.9498 22.0625 53.3331 21.3791 53.6126 20.6156C53.8921 19.852 54.0334 19.0554 54.0334 18.2266C54.0334 17.2084 53.8605 16.4142 53.516 15.84C53.1714 15.2682 52.5338 14.9805 51.6079 14.9805C51.3044 14.9805 50.9135 15.0375 50.4288 15.1393C49.9425 15.2474 49.5073 15.4718 49.1172 15.8093L46.9843 24.5289C47.1129 24.5513 47.2266 24.5725 47.3237 24.5926C47.4187 24.6142 47.5237 24.6295 47.6283 24.6401C47.7389 24.6523 47.8655 24.6586 48.0184 24.6586C48.1713 24.6586 48.3626 24.659 48.5993 24.659Z" fill="white"/>
<path d="M64.1029 28.5716H58.8175L63.281 11.3075H68.6025L64.1029 28.5716ZM66.6748 9.20407C65.9371 9.20407 65.2682 9.00223 64.6748 8.59776C64.0764 8.19571 63.7801 7.57684 63.7801 6.74275C63.7801 6.28397 63.8815 5.85355 64.0826 5.44745C64.2867 5.04216 64.5535 4.69321 64.8877 4.39654C65.2215 4.1023 65.6082 3.86723 66.0474 3.69012C66.4892 3.51584 66.9592 3.42871 67.4601 3.42871C68.1973 3.42871 68.8627 3.63055 69.4584 4.03502C70.0518 4.44153 70.3503 5.0604 70.3503 5.89003C70.3503 6.35043 70.2494 6.78247 70.0466 7.18776C69.8451 7.59304 69.5783 7.94199 69.2441 8.23866C68.9129 8.53331 68.5227 8.76757 68.0844 8.94306C67.6422 9.12017 67.1739 9.20407 66.6748 9.20407Z" fill="white"/>
<path d="M72.8003 7.60949L77.7761 6.85693L76.5542 11.7151H81.8832L80.9209 15.5371H75.6241L74.2132 21.3022C74.0832 21.7827 74.0095 22.2315 73.9888 22.6486C73.9655 23.0677 74.0198 23.4275 74.1482 23.7305C74.2758 24.0342 74.5053 24.2683 74.8382 24.4339C75.1695 24.6022 75.6439 24.6869 76.2661 24.6869C76.7786 24.6869 77.2779 24.6393 77.7607 24.5449C78.2406 24.4521 78.7269 24.3229 79.2191 24.1538L79.5734 27.7274C78.9314 27.9572 78.2362 28.1549 77.4872 28.3213C76.737 28.49 75.8488 28.5712 74.8223 28.5712C73.3464 28.5712 72.2022 28.3573 71.387 27.9313C70.5729 27.5022 69.9975 26.916 69.6531 26.1739C69.3134 25.4345 69.1616 24.5821 69.204 23.6218C69.248 22.6591 69.3966 21.6473 69.6531 20.5817L72.8003 7.60949Z" fill="white"/>
<path d="M81.8832 21.6412C81.8832 20.2395 82.1222 18.9176 82.5999 17.6802C83.0767 16.4416 83.7636 15.3585 84.6549 14.4289C85.543 13.504 86.625 12.7712 87.8986 12.2333C89.1661 11.6984 90.5853 11.4287 92.1494 11.4287C93.1284 11.4287 94.0028 11.5166 94.7722 11.6927C95.5448 11.8704 96.2437 12.1 96.8759 12.388L95.2124 15.9793C94.7778 15.8119 94.3268 15.6645 93.8604 15.5308C93.3936 15.3944 92.8238 15.3287 92.1498 15.3287C90.5399 15.3287 89.2671 15.8555 88.3199 16.9057C87.3763 17.9568 86.901 19.3715 86.901 21.1461C86.901 22.1979 87.1401 23.0483 87.6197 23.6989C88.0969 24.3496 88.9786 24.6732 90.2586 24.6732C90.8903 24.6732 91.5 24.6105 92.0838 24.4882C92.6721 24.3645 93.1916 24.2086 93.6491 24.0244L94.0093 27.7059C93.3992 27.9305 92.7264 28.1334 91.9885 28.311C91.2489 28.4825 90.3684 28.5716 89.3476 28.5716C88 28.5716 86.8592 28.3844 85.926 28.0157C84.9925 27.6413 84.2211 27.1442 83.6135 26.5146C83.0027 25.8835 82.5641 25.1465 82.2928 24.3007C82.0216 23.4556 81.8832 22.5677 81.8832 21.6412Z" fill="white"/>
<path d="M102.861 28.5716C101.648 28.5716 100.595 28.405 99.7012 28.0753C98.8101 27.7456 98.072 27.2829 97.4883 26.6831C96.9037 26.0864 96.4662 25.3792 96.1665 24.5643C95.8668 23.7497 95.7226 22.8477 95.7226 21.8594C95.7226 20.6196 95.9435 19.3803 96.3899 18.1443C96.8342 16.9057 97.4934 15.7928 98.3658 14.8037C99.2315 13.8131 100.299 13.0031 101.557 12.3716C102.813 11.7443 104.258 11.4287 105.88 11.4287C107.071 11.4287 108.119 11.5957 109.025 11.9254C109.927 12.2543 110.67 12.7208 111.257 13.3176C111.837 13.9174 112.279 14.6215 112.575 15.4375C112.874 16.2505 113.022 17.1548 113.022 18.144C113.022 19.3799 112.804 20.6192 112.372 21.859C111.939 23.0926 111.296 24.2082 110.449 25.1996C109.602 26.1887 108.544 26.9983 107.273 27.6272C106.004 28.256 104.532 28.5716 102.861 28.5716ZM105.401 15.329C104.648 15.329 103.982 15.5262 103.411 15.9155C102.839 16.3094 102.358 16.8045 101.971 17.4016C101.579 18.0015 101.289 18.6555 101.093 19.3665C100.898 20.079 100.803 20.7526 100.803 21.3925C100.803 22.4252 100.987 23.2294 101.351 23.8082C101.719 24.384 102.381 24.6735 103.343 24.6735C104.099 24.6735 104.761 24.4779 105.335 24.0844C105.904 23.6936 106.385 23.1981 106.775 22.5998C107.164 22.003 107.457 21.3471 107.654 20.6349C107.846 19.9247 107.944 19.2473 107.944 18.6085C107.944 17.5785 107.76 16.7724 107.393 16.1944C107.027 15.6186 106.362 15.329 105.401 15.329Z" fill="white"/>
<path d="M117.78 28.5716H113.022L117.037 11.3075H121.826L117.78 28.5716ZM120.09 9.20407C119.427 9.20407 118.826 9.00223 118.293 8.59776C117.757 8.19571 117.488 7.57684 117.488 6.74275C117.488 6.28397 117.581 5.85355 117.762 5.44745C117.943 5.04216 118.185 4.69321 118.486 4.39654C118.784 4.1023 119.135 3.86723 119.53 3.69012C119.925 3.51584 120.347 3.42871 120.796 3.42871C121.461 3.42871 122.062 3.63055 122.596 4.03502C123.131 4.44153 123.401 5.0604 123.401 5.89003C123.401 6.35043 123.305 6.78247 123.126 7.18776C122.946 7.59304 122.705 7.94199 122.405 8.23866C122.104 8.53331 121.757 8.76757 121.362 8.94306C120.964 9.12017 120.542 9.20407 120.09 9.20407Z" fill="white"/>
<path d="M125.111 12.5771C125.484 12.4724 125.9 12.3465 126.352 12.2096C126.807 12.0727 127.314 11.9453 127.881 11.8304C128.442 11.712 129.074 11.616 129.77 11.5416C130.466 11.4657 131.259 11.4287 132.14 11.4287C134.73 11.4287 136.515 12.153 137.5 13.5972C138.485 15.0414 138.655 17.0179 138.016 19.5231L135.758 28.5716H130.816L133.004 19.7135C133.138 19.1604 133.243 18.6258 133.32 18.1033C133.398 17.5856 133.394 17.1292 133.303 16.7343C133.215 16.344 133.01 16.0245 132.691 15.7771C132.367 15.5336 131.877 15.4112 131.213 15.4112C130.573 15.4112 129.922 15.4773 129.257 15.6048L126.039 28.5712H121.095L125.111 12.5771Z" fill="white"/>
</svg>
